name Run_500 02_newCOP3_v24.mot
datacolumns 19
datarows 73
range 1.275 1.347
DataType=double
version=3
OpenSimVersion=4.3-2021-08-27-4bc7ad9
endheader
time	R_ground_force_vx	R_ground_force_vy	R_ground_force_vz	R_ground_force_px	R_ground_force_py	R_ground_force_pz	L_ground_force_vx	L_ground_force_vy	L_ground_force_vz	L_ground_force_px	L_ground_force_py	L_ground_force_pz	R_ground_torque_x	R_ground_torque_y	R_ground_torque_z	L_ground_torque_x	L_ground_torque_y	L_ground_torque_z
1.275	-80.845772	605.917236	-11.502065	0.988971	0	-0.307182	0	0	0	0	0	0	-0	1.510098	-0	0	0	0
1.276	-83.012703	642.8551639999999	-9.785062999999999	0.987615	0	-0.307208	0	0	0	0	0	0	-0	1.76622	-0	0	0	0
1.277	-85.36174800000001	680.121765	-7.786936	0.986314	0	-0.307217	0	0	0	0	0	0	-0	2.027179	-0	0	0	0
1.278	-87.929146	717.518433	-5.499438	0.985061	0	-0.30721	0	0	0	0	0	0	-0	2.29081	-0	0	0	0
1.279	-90.74857299999999	754.838318	-2.918867	0.983849	0	-0.307189	0	0	0	0	0	0	-0	2.554929	-0	0	0	0
1.28	-93.849976	791.8703	-0.046904	0.98267	0	-0.307155	0	0	0	0	0	0	-0	2.817363	-0	0	0	0
1.281	-97.25844600000001	828.402649	3.108602	0.981518	0	-0.30711	0	0	0	0	0	0	-0	3.075974	-0	0	0	0
1.282	-100.993317	864.227295	6.532935	0.980389	0	-0.307055	0	0	0	0	0	0	-0	3.328684	-0	0	0	0
1.283	-105.06749	899.144165	10.203932	0.979275	0	-0.30699	0	0	0	0	0	0	-0	3.573503	-0	0	0	0
1.284	-109.487022	932.965881	14.091567	0.978171	0	-0.306916	0	0	0	0	0	0	-0	3.808548	-0	0	0	0
1.285	-114.250931	965.521301	18.157728	0.977073	0	-0.306834	0	0	0	0	0	0	-0	4.03206	-0	0	0	0
1.286	-119.351341	996.659912	22.356222	0.975973	0	-0.306744	0	0	0	0	0	0	-0	4.242427	-0	0	0	0
1.287	-124.773895	1026.255005	26.633034	0.974868	0	-0.306647	0	0	0	0	0	0	-0	4.438194	-0	0	0	0
1.288	-130.498306	1054.206177	30.92687	0.973751	0	-0.306543	0	0	0	0	0	0	-0	4.61808	-0	0	0	0
1.289	-136.499176	1080.441528	35.169968	0.972617	0	-0.306433	0	0	0	0	0	0	-0	4.780985	-0	0	0	0
1.29	-142.746826	1104.918579	39.289207	0.971461	0	-0.306316	0	0	0	0	0	0	-0	4.925998	-0	0	0	0
1.291	-149.208252	1127.625	43.207497	0.9702769999999999	0	-0.306193	0	0	0	0	0	0	-0	5.0524	-0	0	0	0
1.292	-155.848038	1148.577026	46.845406	0.969059	0	-0.306065	0	0	0	0	0	0	-0	5.159672	-0	0	0	0
1.293	-162.629028	1167.819092	50.123013	0.967803	0	-0.305931	0	0	0	0	0	0	-0	5.247487	-0	0	0	0
1.294	-169.513077	1185.420532	52.961933	0.9665010000000001	0	-0.305791	0	0	0	0	0	0	-0	5.31571	-0	0	0	0
1.295	-176.461426	1201.473267	55.287464	0.965149	0	-0.305645	0	0	0	0	0	0	-0	5.364395	-0	0	0	0
1.296	-183.435028	1216.088501	57.030777	0.963741	0	-0.305494	0	0	0	0	0	0	-0	5.393775	-0	0	0	0
1.297	-190.394531	1229.39209	58.131077	0.962272	0	-0.305337	0	0	0	0	0	0	-0	5.404251	-0	0	0	0
1.298	-197.300247	1241.521606	58.537685	0.960735	0	-0.305174	0	0	0	0	0	0	-0	5.396385	-0	0	0	0
1.299	-204.111954	1252.621704	58.211926	0.959125	0	-0.305005	0	0	0	0	0	0	-0	5.370883	-0	0	0	0
1.3	-210.78862	1262.840088	57.128754	0.957438	0	-0.304831	0	0	0	0	0	0	-0	5.328581	-0	0	0	0
1.301	-217.288254	1272.324829	55.278069	0.955669	0	-0.30465	0	0	0	0	0	0	-0	5.270432	-0	0	0	0
1.302	-223.56781	1281.220459	52.665619	0.953812	0	-0.304462	0	0	0	0	0	0	-0	5.197489	-0	0	0	0
1.303	-229.583176	1289.665405	49.313477	0.951863	0	-0.304268	0	0	0	0	0	0	-0	5.110885	-0	0	0	0
1.304	-235.289474	1297.790405	45.260002	0.949819	0	-0.304067	0	0	0	0	0	0	-0	5.011817	-0	0	0	0
1.305	-240.641586	1305.716309	40.559341	0.947676	0	-0.30386	0	0	0	0	0	0	-0	4.901531	-0	0	0	0
1.306	-245.594849	1313.553345	35.280399	0.945431	0	-0.303645	0	0	0	0	0	0	-0	4.781301	-0	0	0	0
1.307	-250.106003	1321.400269	29.505342	0.9430809999999999	0	-0.303422	0	0	0	0	0	0	-0	4.652415	-0	0	0	0
1.308	-254.134293	1329.344116	23.327644	0.940625	0	-0.303192	0	0	0	0	0	0	-0	4.516156	-0	0	0	0
1.309	-257.64267	1337.460327	16.849789	0.938062	0	-0.302955	0	0	0	0	0	0	-0	4.373788	-0	0	0	0
1.31	-260.598969	1345.812622	10.180634	0.9353900000000001	0	-0.30271	0	0	0	0	0	0	-0	4.226541	-0	0	0	0
1.311	-262.977173	1354.453735	3.432595	0.9326100000000001	0	-0.302457	0	0	0	0	0	0	-0	4.075598	-0	0	0	0
1.312	-264.75827	1363.425293	-3.281308	0.929723	0	-0.302197	0	0	0	0	0	0	-0	3.922085	-0	0	0	0
1.313	-265.931061	1372.758301	-9.850395000000001	0.926731	0	-0.301929	0	0	0	0	0	0	-0	3.767056	-0	0	0	0
1.314	-266.492645	1382.473755	-16.169195	0.923636	0	-0.301653	0	0	0	0	0	0	-0	3.61149	-0	0	0	0
1.315	-266.448547	1392.582153	-22.140112	0.920441	0	-0.30137	0	0	0	0	0	0	-0	3.456277	-0	0	0	0
1.316	-265.812378	1403.084839	-27.675829	0.917149	0	-0.30108	0	0	0	0	0	0	-0	3.302221	-0	0	0	0
1.317	-264.605469	1413.973633	-32.701374	0.913766	0	-0.300784	0	0	0	0	0	0	-0	3.150029	-0	0	0	0
1.318	-262.855682	1425.231079	-37.155773	0.910296	0	-0.300481	0	0	0	0	0	0	-0	3.000313	-0	0	0	0
1.319	-260.596436	1436.831543	-40.993267	0.906744	0	-0.300173	0	0	0	0	0	0	-0	2.853589	-0	0	0	0
1.32	-257.865265	1448.740967	-44.18409	0.9031169999999999	0	-0.29986	0	0	0	0	0	0	-0	2.710277	-0	0	0	0
1.321	-254.702362	1460.918091	-46.714775	0.89942	0	-0.299543	0	0	0	0	0	0	-0	2.570704	-0	0	0	0
1.322	-251.148987	1473.315186	-48.588013	0.895661	0	-0.299222	0	0	0	0	0	0	-0	2.435111	-0	0	0	0
1.323	-247.24614	1485.87854	-49.82209	0.8918469999999999	0	-0.298898	0	0	0	0	0	0	-0	2.303652	-0	0	0	0
1.324	-243.033188	1498.550171	-50.449982	0.887983	0	-0.298573	0	0	0	0	0	0	-0	2.176406	-0	0	0	0
1.325	-238.546906	1511.268066	-50.518044	0.884076	0	-0.298246	0	0	0	0	0	0	-0	2.05338	-0	0	0	0
1.326	-233.820587	1523.968384	-50.084496	0.880134	0	-0.297919	0	0	0	0	0	0	-0	1.934521	-0	0	0	0
1.327	-228.883636	1536.585327	-49.217606	0.876163	0	-0.297593	0	0	0	0	0	0	-0	1.81972	-0	0	0	0
1.328	-223.761337	1549.053467	-47.993759	0.872169	0	-0.297269	0	0	0	0	0	0	-0	1.708819	-0	0	0	0
1.329	-218.47496	1561.308105	-46.495335	0.868158	0	-0.296947	0	0	0	0	0	0	-0	1.601628	-0	0	0	0
1.33	-213.042145	1573.286377	-44.808567	0.864135	0	-0.296629	0	0	0	0	0	0	-0	1.497923	-0	0	0	0
1.331	-207.477402	1584.928101	-43.021336	0.860105	0	-0.296314	0	0	0	0	0	0	-0	1.397461	-0	0	0	0
1.332	-201.792816	1596.176514	-41.220985	0.856073	0	-0.296005	0	0	0	0	0	0	-0	1.299987	-0	0	0	0
1.333	-195.998672	1606.979248	-39.492199	0.852044	0	-0.295701	0	0	0	0	0	0	-0	1.205237	-0	0	0	0
1.334	-190.104279	1617.28833	-37.91497	0.848019	0	-0.295404	0	0	0	0	0	0	-0	1.112951	-0	0	0	0
1.335	-184.118439	1627.060425	-36.562706	0.8440029999999999	0	-0.295114	0	0	0	0	0	0	-0	1.022874	-0	0	0	0
1.336	-178.050079	1636.257935	-35.500507	0.839998	0	-0.294832	0	0	0	0	0	0	-0	0.934761	-0	0	0	0
1.337	-171.908463	1644.848145	-34.783657	0.836005	0	-0.294558	0	0	0	0	0	0	-0	0.848388	-0	0	0	0
1.338	-165.7034	1652.804077	-34.456367	0.832025	0	-0.294292	0	0	0	0	0	0	-0	0.763545	-0	0	0	0
1.339	-159.445236	1660.104126	-34.550781	0.828061	0	-0.294036	0	0	0	0	0	0	-0	0.680046	-0	0	0	0
1.34	-153.144684	1666.731812	-35.086315	0.82411	0	-0.293788	0	0	0	0	0	0	-0	0.597728	-0	0	0	0
1.341	-146.812531	1672.67627	-36.06929	0.820175	0	-0.29355	0	0	0	0	0	0	-0	0.5164530000000001	-0	0	0	0
1.342	-140.459274	1677.931396	-37.492954	0.816253	0	-0.293322	0	0	0	0	0	0	-0	0.436104	-0	0	0	0
1.343	-134.094772	1682.495972	-39.337807	0.812344	0	-0.293104	0	0	0	0	0	0	-0	0.356589	-0	0	0	0
1.344	-127.727806	1686.373657	-41.572311	0.808446	0	-0.292895	0	0	0	0	0	0	-0	0.277835	-0	0	0	0
1.345	-121.365822	1689.571899	-44.153904	0.804558	0	-0.292696	0	0	0	0	0	0	-0	0.19979	-0	0	0	0
1.346	-115.014626	1692.102417	-47.0303	0.800677	0	-0.292507	0	0	0	0	0	0	-0	0.122416	-0	0	0	0
1.347	-108.678253	1693.97998	-50.14109	0.796802	0	-0.292328	0	0	0	0	0	0	-0	0.045689	-0	0	0	0
